D:\Documents\paper\Opensim\Pipline\Result\dingzhejin\30DJ0001\original_data\dingzhejin_30DJ0001_grf.mot
version=1
nRows=64
nColumns=19
inDegrees=yes
endheader
time	ground_force_vx	ground_force_vy	ground_force_vz	ground_force_px	ground_force_py	ground_force_pz	1_ground_force_vx	1_ground_force_vy	1_ground_force_vz	1_ground_force_px	1_ground_force_py	1_ground_force_pz	ground_torque_x	ground_torque_y	ground_torque_z	1_ground_torque_x	1_ground_torque_y	1_ground_torque_z
0	-0.062428	-0.104501	-0.012634	0.172841	0.000000	0.115228	-0.079231	-0.071967	0.025450	0.172841	0.000000	0.351444	-0.000000	-0.014946	-0.000000	0.000000	0.035097	-0.000000	
1.000000e-03	-0.077819	-0.129338	-0.015711	0.214129	0.000000	0.142753	-0.099067	-0.088733	0.032603	0.214129	0.000000	0.435396	-0.000000	-0.018824	-0.000000	0.000000	0.043526	-0.000000	
2.000000e-03	-0.089043	-0.149416	-0.018267	0.245459	0.000000	0.163639	-0.113956	-0.100188	0.038712	0.245459	0.000000	0.499100	-0.000000	-0.021799	-0.000000	0.000000	0.049958	-0.000000	
3.000000e-03	-0.095461	-0.166149	-0.020345	0.266689	0.000000	0.177793	-0.122620	-0.107291	0.043291	0.266689	0.000000	0.542269	-0.000000	-0.023612	-0.000000	0.000000	0.054231	-0.000000	
4.000000e-03	-0.097879	-0.180156	-0.021490	0.280202	0.000000	0.186802	-0.125843	-0.111653	0.046560	0.280202	0.000000	0.569745	-0.000000	-0.024450	-0.000000	0.000000	0.056752	-0.000000	
5.000000e-03	-0.097637	-0.190137	-0.021104	0.288467	0.000000	0.192311	-0.125807	-0.113016	0.049394	0.288467	0.000000	0.586549	-0.000000	-0.024751	-0.000000	0.000000	0.058054	-0.000000	
6.000000e-03	-0.095850	-0.195518	-0.019366	0.293384	0.000000	0.195589	-0.124696	-0.111511	0.052680	0.293384	0.000000	0.596547	-0.000000	-0.024842	-0.000000	0.000000	0.058498	-0.000000	
7.000000e-03	-0.093023	-0.197188	-0.017240	0.296250	0.000000	0.197500	-0.123780	-0.108975	0.056531	0.296250	0.000000	0.602376	-0.000000	-0.024777	-0.000000	0.000000	0.058329	-0.000000	
8.000000e-03	-0.089417	-0.196654	-0.015776	0.297896	0.000000	0.198597	-0.123614	-0.106544	0.060416	0.297896	0.000000	0.605721	-0.000000	-0.024441	-0.000000	0.000000	0.057846	-0.000000	
9.000000e-03	-0.085670	-0.195600	-0.015332	0.298829	0.000000	0.199219	-0.124009	-0.104291	0.063800	0.298829	0.000000	0.607618	-0.000000	-0.023736	-0.000000	0.000000	0.057272	-0.000000	
1.000000e-02	-0.082947	-0.195100	-0.015487	0.299352	0.000000	0.199568	-0.124147	-0.103066	0.066270	0.299352	0.000000	0.608683	-0.000000	-0.022703	-0.000000	0.000000	0.056628	-0.000000	
1.100000e-02	-0.082384	-0.195130	-0.015738	0.299644	0.000000	0.199763	-0.123705	-0.103315	0.067396	0.299644	0.000000	0.609276	-0.000000	-0.021478	-0.000000	0.000000	0.055934	-0.000000	
1.200000e-02	-0.084267	-0.194898	-0.015985	0.299805	0.000000	0.199870	-0.123266	-0.103284	0.066778	0.299805	0.000000	0.609604	-0.000000	-0.020189	-0.000000	0.000000	0.055379	-0.000000	
1.300000e-02	-0.087680	-0.193337	-0.016381	0.299894	0.000000	0.199929	-0.123480	-0.101289	0.064415	0.299894	0.000000	0.609785	-0.000000	-0.018920	-0.000000	0.000000	0.055180	-0.000000	
1.400000e-02	-0.090973	-0.189389	-0.016676	0.299943	0.000000	0.199962	-0.124524	-0.098358	0.061089	0.299943	0.000000	0.609883	-0.000000	-0.017716	-0.000000	0.000000	0.055388	-0.000000	
1.500000e-02	-0.092931	-0.182357	-0.015901	0.299969	0.000000	0.199979	-0.126225	-0.096653	0.057876	0.299969	0.000000	0.609937	-0.000000	-0.016648	-0.000000	0.000000	0.055850	-0.000000	
1.600000e-02	-0.093880	-0.173101	-0.013372	0.299983	0.000000	0.199989	-0.128413	-0.096696	0.055168	0.299983	0.000000	0.609966	-0.000000	-0.015843	-0.000000	0.000000	0.056340	-0.000000	
1.700000e-02	-0.095324	-0.164415	-0.009705	0.299991	0.000000	0.199994	-0.131127	-0.097240	0.052754	0.299991	0.000000	0.609982	-0.000000	-0.015417	-0.000000	0.000000	0.056689	-0.000000	
1.800000e-02	-0.098166	-0.158989	-0.006220	0.299995	0.000000	0.199997	-0.134422	-0.097310	0.050706	0.299995	0.000000	0.609990	-0.000000	-0.015451	-0.000000	0.000000	0.056747	-0.000000	
1.900000e-02	-0.101749	-0.157642	-0.003762	0.299997	0.000000	0.199998	-0.138071	-0.097651	0.049495	0.299997	0.000000	0.609995	-0.000000	-0.016009	-0.000000	0.000000	0.056397	-0.000000	
2.000000e-02	-0.104602	-0.159552	-0.002272	0.299999	0.000000	0.199999	-0.141617	-0.099426	0.049382	0.299999	0.000000	0.609997	-0.000000	-0.017056	-0.000000	0.000000	0.055687	-0.000000	
2.100000e-02	-0.105738	-0.163764	-0.001280	0.299999	0.000000	0.200000	-0.144629	-0.102751	0.049949	0.299999	0.000000	0.609999	-0.000000	-0.018360	-0.000000	0.000000	0.054792	-0.000000	
2.200000e-02	-0.105337	-0.170351	-0.000775	0.300000	0.000000	0.200000	-0.146759	-0.107164	0.050219	0.300000	0.000000	0.609999	-0.000000	-0.019529	-0.000000	0.000000	0.053834	-0.000000	
2.300000e-02	-0.104165	-0.179310	-0.001420	0.300000	0.000000	0.200000	-0.147994	-0.111693	0.049358	0.300000	0.000000	0.610000	-0.000000	-0.020233	-0.000000	0.000000	0.052890	-0.000000	
2.400000e-02	-0.102650	-0.189355	-0.003793	0.300000	0.000000	0.200000	-0.149162	-0.114961	0.047065	0.300000	0.000000	0.610000	-0.000000	-0.020455	-0.000000	0.000000	0.052150	-0.000000	
2.500000e-02	-0.101039	-0.198959	-0.007549	0.300000	0.000000	0.200000	-0.151452	-0.116119	0.043734	0.300000	0.000000	0.610000	-0.000000	-0.020436	-0.000000	0.000000	0.051836	-0.000000	
2.600000e-02	-0.099970	-0.206926	-0.011568	0.300000	0.000000	0.200000	-0.155035	-0.115067	0.040575	0.300000	0.000000	0.610000	-0.000000	-0.020387	-0.000000	0.000000	0.051995	-0.000000	
2.700000e-02	-0.099929	-0.211634	-0.014804	0.300000	0.000000	0.200000	-0.158724	-0.112598	0.039016	0.300000	0.000000	0.610000	-0.000000	-0.020435	-0.000000	0.000000	0.052517	-0.000000	
2.800000e-02	-0.100464	-0.211725	-0.016650	0.300000	0.000000	0.200000	-0.161048	-0.109891	0.039500	0.300000	0.000000	0.610000	-0.000000	-0.020712	-0.000000	0.000000	0.053282	-0.000000	
2.900000e-02	-0.100752	-0.207769	-0.016896	0.300000	0.000000	0.200000	-0.161526	-0.106687	0.041014	0.300000	0.000000	0.610000	-0.000000	-0.021345	-0.000000	0.000000	0.054180	-0.000000	
3.000000e-02	-0.100448	-0.202280	-0.015623	0.300000	0.000000	0.200000	-0.160955	-0.101642	0.042015	0.300000	0.000000	0.610000	-0.000000	-0.022284	-0.000000	0.000000	0.054989	-0.000000	
3.100000e-02	-0.099548	-0.197981	-0.012981	0.300000	0.000000	0.200000	-0.160304	-0.094991	0.041617	0.300000	0.000000	0.610000	-0.000000	-0.023158	-0.000000	0.000000	0.055438	-0.000000	
3.200000e-02	-0.098206	-0.196121	-0.009353	0.300000	0.000000	0.200000	-0.159777	-0.088891	0.039788	0.300000	0.000000	0.610000	-0.000000	-0.023515	-0.000000	0.000000	0.055475	-0.000000	
3.300000e-02	-0.096821	-0.196352	-0.005558	0.300000	0.000000	0.200000	-0.159138	-0.084706	0.036905	0.300000	0.000000	0.610000	-0.000000	-0.023271	-0.000000	0.000000	0.055261	-0.000000	
3.400000e-02	-0.095967	-0.197812	-0.002432	0.300000	0.000000	0.200000	-0.158358	-0.081168	0.033524	0.300000	0.000000	0.610000	-0.000000	-0.022723	-0.000000	0.000000	0.054924	-0.000000	
3.500000e-02	-0.095998	-0.199992	-0.000465	0.300000	0.000000	0.200000	-0.157720	-0.075842	0.030288	0.300000	0.000000	0.610000	-0.000000	-0.022183	-0.000000	0.000000	0.054519	-0.000000	
3.600000e-02	-0.096577	-0.202687	0.000291	0.300000	0.000000	0.200000	-0.157519	-0.067833	0.027799	0.300000	0.000000	0.610000	-0.000000	-0.021779	-0.000000	0.000000	0.054106	-0.000000	
3.700000e-02	-0.097090	-0.205076	0.000243	0.300000	0.000000	0.200000	-0.157978	-0.058372	0.026393	0.300000	0.000000	0.610000	-0.000000	-0.021529	-0.000000	0.000000	0.053734	-0.000000	
3.800000e-02	-0.097686	-0.205348	-0.000032	0.300000	0.000000	0.200000	-0.159506	-0.049509	0.025775	0.300000	0.000000	0.610000	-0.000000	-0.021476	-0.000000	0.000000	0.053388	-0.000000	
3.900000e-02	-0.099301	-0.201949	0.000023	0.300000	0.000000	0.200000	-0.162234	-0.043169	0.025290	0.300000	0.000000	0.610000	-0.000000	-0.021733	-0.000000	0.000000	0.053003	-0.000000	
4.000000e-02	-0.102419	-0.194795	0.001035	0.300000	0.000000	0.200000	-0.165306	-0.040681	0.024693	0.300000	0.000000	0.610000	-0.000000	-0.022362	-0.000000	0.000000	0.052563	-0.000000	
4.100000e-02	-0.106183	-0.185194	0.003287	0.300000	0.000000	0.200000	-0.167463	-0.042206	0.024018	0.300000	0.000000	0.610000	-0.000000	-0.023279	-0.000000	0.000000	0.052153	-0.000000	
4.200000e-02	-0.109135	-0.175423	0.006009	0.300000	0.000000	0.200000	-0.168153	-0.046687	0.023249	0.300000	0.000000	0.610000	-0.000000	-0.024334	-0.000000	0.000000	0.051857	-0.000000	
4.300000e-02	-0.110491	-0.168020	0.007905	0.300000	0.000000	0.200000	-0.167788	-0.052509	0.022453	0.300000	0.000000	0.610000	-0.000000	-0.025391	-0.000000	0.000000	0.051680	-0.000000	
4.400000e-02	-0.110242	-0.164859	0.008307	0.300000	0.000000	0.200000	-0.167231	-0.057968	0.021765	0.300000	0.000000	0.610000	-0.000000	-0.026392	-0.000000	0.000000	0.051577	-0.000000	
4.500000e-02	-0.108605	-0.166816	0.007129	0.300000	0.000000	0.200000	-0.167195	-0.061369	0.021441	0.300000	0.000000	0.610000	-0.000000	-0.027390	-0.000000	0.000000	0.051502	-0.000000	
4.600000e-02	-0.105778	-0.173306	0.004444	0.300000	0.000000	0.200000	-0.168050	-0.061460	0.021750	0.300000	0.000000	0.610000	-0.000000	-0.028391	-0.000000	0.000000	0.051482	-0.000000	
4.700000e-02	-0.101997	-0.182290	0.000564	0.300000	0.000000	0.200000	-0.169922	-0.058732	0.022562	0.300000	0.000000	0.610000	-0.000000	-0.029215	-0.000000	0.000000	0.051663	-0.000000	
4.800000e-02	-0.097877	-0.192147	-0.004061	0.300000	0.000000	0.200000	-0.172629	-0.055857	0.023647	0.300000	0.000000	0.610000	-0.000000	-0.029631	-0.000000	0.000000	0.052175	-0.000000	
4.900000e-02	-0.094339	-0.202387	-0.008815	0.300000	0.000000	0.200000	-0.175344	-0.055589	0.025276	0.300000	0.000000	0.610000	-0.000000	-0.029576	-0.000000	0.000000	0.052978	-0.000000	
5.000000e-02	-0.091898	-0.211771	-0.013056	0.300000	0.000000	0.200000	-0.176711	-0.058532	0.027985	0.300000	0.000000	0.610000	-0.000000	-0.029206	-0.000000	0.000000	0.053891	-0.000000	
5.100000e-02	-0.090434	-0.217868	-0.016692	0.300000	0.000000	0.200000	-0.175951	-0.062763	0.031979	0.300000	0.000000	0.610000	-0.000000	-0.028764	-0.000000	0.000000	0.054662	-0.000000	
5.200000e-02	-0.089375	-0.219160	-0.019914	0.300000	0.000000	0.200000	-0.173567	-0.065355	0.036729	0.300000	0.000000	0.610000	-0.000000	-0.028384	-0.000000	0.000000	0.055085	-0.000000	
5.300000e-02	-0.087972	-0.216488	-0.022570	0.300000	0.000000	0.200000	-0.170496	-0.065394	0.041083	0.300000	0.000000	0.610000	-0.000000	-0.028106	-0.000000	0.000000	0.055146	-0.000000	
5.400000e-02	-0.085826	-0.212316	-0.024310	0.300000	0.000000	0.200000	-0.167278	-0.065027	0.044113	0.300000	0.000000	0.610000	-0.000000	-0.027980	-0.000000	0.000000	0.055048	-0.000000	
5.500000e-02	-0.083066	-0.209175	-0.024907	0.300000	0.000000	0.200000	-0.164252	-0.067008	0.045525	0.300000	0.000000	0.610000	-0.000000	-0.027918	-0.000000	0.000000	0.055066	-0.000000	
5.600000e-02	-0.080200	-0.208978	-0.024409	0.300000	0.000000	0.200000	-0.161831	-0.072400	0.045203	0.300000	0.000000	0.610000	-0.000000	-0.027738	-0.000000	0.000000	0.055351	-0.000000	
5.700000e-02	-0.077961	-0.212789	-0.023055	0.300000	0.000000	0.200000	-0.160569	-0.080153	0.043296	0.300000	0.000000	0.610000	-0.000000	-0.027510	-0.000000	0.000000	0.055855	-0.000000	
5.800000e-02	-0.076886	-0.219871	-0.021108	0.300000	0.000000	0.200000	-0.160970	-0.087650	0.040421	0.300000	0.000000	0.610000	-0.000000	-0.027497	-0.000000	0.000000	0.056413	-0.000000	
5.900000e-02	-0.076829	-0.227651	-0.018903	0.300000	0.000000	0.200000	-0.163000	-0.092749	0.037174	0.300000	0.000000	0.610000	-0.000000	-0.027770	-0.000000	0.000000	0.056878	-0.000000	
6.000000e-02	-0.077057	-0.234191	-0.016852	0.300000	0.000000	0.200000	-0.165970	-0.095583	0.034088	0.300000	0.000000	0.610000	-0.000000	-0.028159	-0.000000	0.000000	0.057255	-0.000000	
6.100000e-02	-0.076816	-0.239867	-0.015318	0.300000	0.000000	0.200000	-0.168927	-0.097310	0.031849	0.300000	0.000000	0.610000	-0.000000	-0.028453	-0.000000	0.000000	0.057677	-0.000000	
6.200000e-02	-0.075810	-0.245288	-0.014421	0.300000	0.000000	0.200000	-0.171089	-0.098591	0.030638	0.300000	0.000000	0.610000	-0.000000	-0.028543	-0.000000	0.000000	0.058151	-0.000000	
6.300000e-02	-0.074476	-0.249140	-0.013983	0.300000	0.000000	0.200000	-0.172199	-0.099835	0.029552	0.300000	0.000000	0.610000	-0.000000	-0.028457	-0.000000	0.000000	0.058432	-0.000000	
